<?xml version="1.0" encoding="utf-8"?>
<!-- Svg Vector Icons : http://www.onlinewebfonts.com/icon -->
<!DOCTYPE svg PUBLIC "-//W3C//DTD SVG 1.1//EN" "http://www.w3.org/Graphics/SVG/1.1/DTD/svg11.dtd">
<svg version="1.1" xmlns="http://www.w3.org/2000/svg" xmlns:xlink="http://www.w3.org/1999/xlink" x="0px" y="0px" viewBox="0 0 256 256" width="25px" height="25px" enable-background="new 0 0 256 256" xml:space="preserve">
<metadata> Svg Vector Icons : http://www.onlinewebfonts.com/icon </metadata>
<g><g><g><path fill="#969696" d="M59.8,45.5c-3.7,0.7-8.3,3.1-10.8,5.7c-4.2,4.2-6.2,9.8-6.2,18.2c0,3.8-0.1,4.7-0.9,5.5c-3,3-1,12.6,3.5,18c0.9,1.1,2,3.1,2.6,4.4c3.3,9.1,12.1,15.4,19.9,14.3c6.1-0.8,12.2-5.6,15.2-11.9c2-4.1,2.3-4.6,4.9-8.6c1.1-1.7,2.5-4.3,2.9-5.8c1-3.3,0.8-9-0.3-10.3c-0.6-0.6-0.9-2.4-1.1-6.1c-0.3-5.5-1.4-9.5-3.2-11.5c-0.5-0.6-1.2-2-1.5-3.2c-1.1-4.1-5.2-7.1-11.9-8.7C69.3,44.9,63.6,44.8,59.8,45.5z"/><path fill="#969696" d="M182.9,45.7c-6.6,1.6-11.4,5.5-14.2,11.4c-1.4,3.1-1.6,3.7-1.7,9.9c-0.2,6.1-0.3,6.7-1.4,8c-1,1.2-1.2,2-1.2,4.7c0,4.4,1,7.6,3.5,11.4c2.7,3.9,3,4.4,4.9,8.6c0.9,2.1,2.7,4.5,4.2,6.1c7.2,7.4,17.3,7.7,24.7,0.8c2.7-2.5,5.7-7.2,6.7-10.5c0.2-0.7,1.1-2.1,2.1-3.2c3.4-4,5.4-10,4.8-14.7c-0.1-1.3-0.7-2.8-1.2-3.2c-0.7-0.7-0.9-2-1.1-6.2c-0.2-6.1-0.8-8.4-2.6-10.5c-0.6-0.8-1.5-2.6-1.9-3.8c-1.3-4.3-4.7-6.8-11.4-8.6C192.7,44.8,187.1,44.7,182.9,45.7z"/><path fill="#969696" d="M120.7,73.5C111.3,75,104,80.2,100.4,88c-1.9,4.2-2.5,7.3-2.5,14.5c0,5.3-0.1,6.4-0.8,7c-3,2.5-2.8,11.5,0.4,17.8c0.5,1,2,3.2,3.3,5c1.3,1.8,2.8,4.3,3.2,5.8c1.1,3.4,5.2,9.4,8,11.8c5,4.3,11.6,6.3,17.1,5.5c8.4-1.4,16.8-9,19.7-17.9c0.4-1.4,1.7-3.5,2.8-4.7c5.9-6.7,8.2-18.8,4.4-22.6c-0.7-0.7-0.9-2-1.1-7.5c-0.3-7.1-1.1-10.2-3.6-13.5c-0.7-0.9-1.6-2.8-2-4.2c-0.9-3.2-3.9-6.4-7.3-8C136,73.8,127.2,72.6,120.7,73.5z"/><path fill="#969696" d="M40.7,109.3c-12.4,5.1-16.4,7.3-20.2,11.2c-3.9,3.9-5.9,7.4-8.1,13.9c-1.5,4.6-2.8,11.9-2.3,13.7c0.3,1.4,4.4,3.1,11.6,4.8c10.4,2.5,20.9,3.6,37.2,4.1l11.4,0.3l2.9-1.7c4.7-2.9,11.3-6,19-9c6.5-2.6,7.2-3,6.9-3.9c-0.3-1-2.1-4.2-6.1-10.6c-4.1-6.5-5.8-16.1-3.8-21.5l0.7-2.1l-2.2-0.8c-1.2-0.5-2.4-0.6-2.6-0.4c-0.2,0.2-0.9,2.6-1.4,5.1c-3,13.1-6.4,22.3-9.8,26.2c-3.1,3.5-8,4.8-11.7,3.1c-2.2-1-5.3-4.4-6.8-7.5c-2.3-4.5-3.3-7.6-5.9-17.6l-2.5-9.9L40.7,109.3z"/><path fill="#969696" d="M207.7,111.3c-3.7,15.8-6.6,23.2-10.3,27.3c-2.5,2.7-4.7,3.8-7.5,3.8c-7.6,0-12.5-8-17.2-27.8c-0.9-3.8-1.8-7.1-2-7.3c-0.2-0.2-2,0.2-3.9,1c-3.3,1.3-3.5,1.4-3.2,2.6c1.8,7.6,0,16-4.9,22.9c-2.1,2.9-5.2,8.7-5.2,9.5c0,0.2,2.2,1.3,4.8,2.3c6.8,2.7,18.1,7.8,21.5,9.9l2.9,1.8l12.8-0.3c17.1-0.4,28.1-1.6,38.7-4.1c7.2-1.7,11.3-3.4,11.6-4.8c0.4-1.8-0.8-9.1-2.3-13.7c-2.2-6.5-4.2-9.9-8.1-13.9c-3-3-4.3-3.9-9.1-6.3c-3.1-1.5-8.3-3.8-11.6-5.2l-6-2.5L207.7,111.3z"/><path fill="#969696" d="M94,152.8c-13.8,5.8-18.7,8.4-22.8,12.3c-5.8,5.4-9.7,12.6-12.2,22c-1.1,4.4-2.1,12.1-1.7,13.4c0.6,2,12,5.6,23.9,7.5c14.6,2.4,23,3,45.2,3c20.7,0,29-0.4,42-2.4c10.1-1.5,22.7-4.9,25.7-6.9c1.2-0.8,1.3-0.9,1-5.3c-0.5-8.5-3.9-18.5-8.5-25.4c-3.3-5-7.3-8.4-14-11.8c-5-2.5-18.9-8.6-22-9.6c-0.9-0.3-1.1,0.1-2.1,3.7c-2.5,9.3-5.8,19.7-7.9,25.5c-2.9,7.6-5.8,14-6.2,13.6c-0.2-0.1-0.8-3.3-1.4-7.1c-1.1-6.4-1.1-6.8-0.3-7.8c0.9-1.1,3.2-12.1,2.9-14.1l-0.1-1.2l-8.9-0.1c-7.1-0.1-9,0-9.5,0.5c-0.8,1,1.7,14.1,2.8,15c0.7,0.5,0.7,1.3-0.3,7.7c-0.6,3.9-1.3,7.1-1.4,7.1c-0.4,0-5-10.2-7-15.6c-2.1-5.6-7-22.4-7.7-25.8c-0.2-1-0.6-1.8-0.9-1.8C102.4,149.3,98.5,150.8,94,152.8z"/></g></g></g>
</svg>