<?xml version="1.0" encoding="utf-8"?>
<!-- Svg Vector Icons : http://www.onlinewebfonts.com/icon -->
<!DOCTYPE svg PUBLIC "-//W3C//DTD SVG 1.1//EN" "http://www.w3.org/Graphics/SVG/1.1/DTD/svg11.dtd">
<svg version="1.1" xmlns="http://www.w3.org/2000/svg" xmlns:xlink="http://www.w3.org/1999/xlink" x="0px" y="0px" viewBox="0 0 256 256" width="25px" height="25px" enable-background="new 0 0 256 256" xml:space="preserve">
<metadata> Svg Vector Icons : http://www.onlinewebfonts.com/icon </metadata>
<g><g><g><path fill="#969696" d="M102.5,14.3c-6.5,1-7.7,1.7-9.1,5.2c-0.6,1.4-1,1.7-1.6,1.5c-0.4-0.2-2.5-0.5-4.4-0.6l-3.6-0.2l-4.6,3c-5.4,3.6-11.3,9.4-14.6,14.2C56.3,49.9,53.6,66,57.4,80.1c0.9,3.3,1.4,6.7,1.6,10.8c0.3,6.2,1,8.6,3.1,12.3c1.5,2.6,4.6,5.3,6.8,6c1.6,0.5,2,0.9,3.5,4.2c2.5,5.4,5.9,10.3,9.9,14.5l3.6,3.6v3.1c0,5.2-0.9,5.7-23.5,12.6c-29.6,9-37.6,12.3-43.7,18c-7.6,7.2-9.8,14.8-8.4,29.6c0.5,5.6,1.7,13.6,2.3,15.4c0.1,0.5,2.8,1.9,6.3,3.5c22.9,10,47.2,16.8,70.3,19.7c6.7,0.8,31.3,0.8,38,0c6.2-0.8,15.5-2.3,19.8-3.3l3.2-0.7l-1.2-1.2c-1-1-1.2-1.6-1.2-4.7c0-2.4,0.3-4,0.9-5.2c0.7-1.5,1.1-1.7,2.9-1.8c1.7-0.1,2-0.3,1.8-1c-1.2-4.1-8.5-39.3-8.5-40.9c0-2.7,1.2-4.7,3.6-5.8c1.9-0.9,3.1-1,26.9-1h24.9l-2.4-2.5c-5.5-5.6-14-9.1-44.1-18.3c-16.8-5.1-20-6.3-22.1-8.3c-1.2-1.1-1.3-1.6-1.3-3.8v-2.5l4.3-4.3c4.6-4.7,7.7-9.2,10.4-14.9c1.5-3.2,1.9-3.7,3.7-4.3c2.5-1,3.6-1.8,5.8-4.8c2.5-3.3,3.8-7.7,3.9-13.8c0.1-3.6,0.5-6.5,1.4-9.9c1.7-6.4,2.2-15.8,1-22.3c-2.6-14.9-10.9-27.4-23.6-35.7c-8.4-5.5-16.8-8-27.2-8.3C106.9,14.1,103.3,14.2,102.5,14.3z M106.8,52.9c10,6.5,22.8,12,33,14.2c2,0.4,6.8,0.9,10.7,1.1l7.1,0.3l-0.3,3.2c-0.1,1.7-0.9,5.2-1.5,7.7c-0.8,3-1.3,6.6-1.5,10.6c-0.2,3.6-0.7,6.9-1.2,8.2c-1.5,4.1-5,7.2-8.1,7.2c-0.9,0-1.3,0.6-2.6,3.7c-4,9.9-11.2,18.3-19.8,23.1c-3.9,2.2-11,4.4-14.1,4.4c-6.6,0-18.4-6.5-24.3-13.4c-1.3-1.5-3-3.7-3.8-5c-1.6-2.4-5.5-10.1-6-11.9c-0.1-0.7-0.6-1-1.5-1c-5.6,0-9.6-7-9.4-16.3c0-3.2-0.1-5.2-0.7-6.7c-0.4-1.2-0.7-2.2-0.6-2.3c0.1,0,1.8-0.6,3.8-1.1c14.8-3.8,26.5-13.1,32.9-26.2c1-2,2.1-3.7,2.4-3.5C101.3,49.4,103.9,51,106.8,52.9z M98.6,138.8c4.8,2,8.7,2.6,12.6,2.1c3.6-0.6,8.7-2.3,12.4-4.1c2.1-1.1,2.3-1.1,2.3-0.3c0,0.5,0.5,1.9,1.2,3.2c0.9,1.7,1.1,2.5,0.7,3.2c-1.4,2.7-19.3,29.3-19.5,29.1c-0.1-0.1-4.5-7.2-9.8-15.6l-9.5-15.3l0.9-1.8c0.5-1,0.9-2.5,0.9-3.2v-1.4l2.5,1.4C94.5,136.9,96.9,138.1,98.6,138.8z"/><path fill="#969696" d="M153.1,173.1c-2.1,1.2-2,2.1,2.1,20.6c2.2,9.7,4.2,18.2,4.6,18.9c1.4,2.8,1.3,2.8,26.8,2.8h23.3l1.4-1.2c0.8-0.6,1.6-1.8,1.9-2.5c0.8-2.1,7.8-34.1,7.8-35.7c0-1-0.4-1.7-1.3-2.4c-1.2-1-1.6-1-33.6-1C164.6,172.7,153.7,172.8,153.1,173.1z M164.7,180.4c0.3,1.6,0.7,3.2,0.9,3.6c0.2,0.5-0.5,0.7-3.7,0.7c-3.8,0-3.9,0-4.2-1.3c-0.1-0.7-0.5-2.1-0.7-3c-0.7-2.9-0.8-2.9,3.4-2.9h3.8L164.7,180.4z M184,181v3.6h-6.7h-6.7l-0.8-3.3c-0.4-1.9-0.8-3.5-0.8-3.6c0-0.2,3.4-0.3,7.5-0.3h7.5L184,181L184,181z M202.8,180.9l-0.8,3.5l-6.6,0.1l-6.6,0.1V181v-3.6h7.4h7.4L202.8,180.9z M215.3,181l-0.8,3.6h-3.8H207l0.3-1.8c0.2-1,0.6-2.6,0.8-3.6l0.5-1.8h3.7h3.8L215.3,181z M167.1,191.2c0.2,1,0.6,2.6,0.8,3.6l0.3,1.8h-3.7c-2.5,0-3.8-0.2-3.9-0.6c-0.1-0.3-0.5-1.9-0.9-3.6l-0.7-3h3.8h3.7L167.1,191.2z M184,193v3.6h-5.3c-3.8,0-5.4-0.2-5.5-0.6c-0.1-0.3-0.5-1.9-0.9-3.6l-0.7-3h6.2h6.2V193z M200.8,189.7c0,0.1-0.3,1.7-0.8,3.6l-0.8,3.3H194h-5.2V193v-3.6h6C198.1,189.4,200.8,189.5,200.8,189.7z M213.3,189.7c0,0.1-0.3,1.7-0.8,3.6l-0.8,3.3h-3.8c-3.1,0-3.8-0.1-3.6-0.7c0.1-0.4,0.5-2,0.9-3.6l0.6-2.9h3.7C211.6,189.4,213.3,189.5,213.3,189.7z M170.3,205.9l1,4.5l-3.6,0.1c-2,0.1-3.7,0-3.8-0.1c-0.2-0.2-2-7.8-2.1-8.6c0-0.2,1.7-0.3,3.7-0.3h3.8L170.3,205.9z M184,206v4.6h-3.8c-3.6,0-3.8,0-4.1-1.1c-1.3-5.4-1.7-7.4-1.7-7.7c0-0.2,2.2-0.3,4.8-0.3h4.8L184,206L184,206z M197.4,205.4c-0.5,2.2-0.9,4.3-0.9,4.6c0,0.4-1.1,0.6-3.8,0.6h-3.8V206v-4.6h4.8h4.8L197.4,205.4z M209.8,205.9l-1,4.5l-3.8,0.1c-2.2,0.1-3.7,0-3.7-0.3c0-0.5,1.3-6.4,1.7-7.9c0.2-0.7,0.9-0.8,4-0.8h3.8L209.8,205.9z"/><path fill="#969696" d="M224.1,196.3l-5.8,23.7l-29.6,0.2c-27.3,0.2-29.8,0.3-30.5,1.1c-0.6,0.7-0.7,1.1-0.3,2.2l0.4,1.3l31.8,0.1l31.8,0.1l0.4-1.5c0.2-0.9,2.9-11.6,5.9-23.8l5.5-22.2h5.2c5.7,0,7.1-0.4,7.1-2.2c0-2.4-0.9-2.6-8.8-2.6h-7.3L224.1,196.3z"/><path fill="#969696" d="M170.6,230.6c-4.1,2-4.1,8.4,0,10.5c4,2.1,8.6-0.9,8.6-5.5c0-2.2-1.2-4-3.4-5.1C174,229.6,172.6,229.6,170.6,230.6z"/><path fill="#969696" d="M206.8,230.5c-2.5,1.1-3.4,2.5-3.4,5.4c0,2.3,0.2,2.8,1.5,4.1c3,3,8,2.1,9.6-1.8c1.3-3-0.1-6.4-3-7.6C209.6,229.7,208.7,229.7,206.8,230.5z"/></g></g></g>
</svg>