<?xml version="1.0" standalone="no"?>
<!DOCTYPE svg PUBLIC "-//W3C//DTD SVG 20010904//EN"
 "http://www.w3.org/TR/2001/REC-SVG-20010904/DTD/svg10.dtd">
<svg version="1.0" xmlns="http://www.w3.org/2000/svg"
  width="24.000000pt" height="24.000000pt" viewBox="0 0 524.000000 524.000000"
 preserveAspectRatio="xMidYMid meet">

<g transform="translate(0.000000,512.000000) scale(0.100000,-0.100000)"
fill="#969696" stroke="none">
<path d="M711 3856 c-8 -9 -11 -90 -9 -272 l3 -258 48 -12 c187 -48 333 -209
360 -399 20 -139 -25 -284 -120 -386 -77 -82 -142 -121 -250 -149 l-43 -11 0
-259 c0 -222 2 -261 16 -274 14 -14 195 -16 1844 -16 1649 0 1830 2 1844 16
14 13 16 52 16 274 l0 259 -42 11 c-197 50 -337 200 -371 393 -40 238 120 480
360 541 l48 12 3 258 c2 182 -1 263 -9 272 -17 21 -3681 21 -3698 0z m1574
-247 c56 -15 104 -54 126 -103 17 -38 19 -72 19 -449 0 -330 -3 -413 -14 -435
-24 -47 -199 -209 -234 -217 l-31 -6 74 -150 c41 -82 75 -159 75 -171 0 -50
-69 -78 -102 -40 -9 9 -55 95 -102 190 l-86 172 -153 0 -152 0 -85 -171 c-47
-94 -93 -179 -103 -190 -35 -38 -107 -13 -107 38 0 13 34 91 75 173 41 82 75
152 75 155 0 3 -6 5 -13 5 -21 0 -235 188 -252 220 -13 24 -15 96 -15 431 0
389 1 404 21 446 24 49 68 87 119 101 50 14 814 15 865 1z m1470 -363 c11 -8
18 -26 18 -46 0 -61 11 -60 -514 -60 l-478 0 -15 22 c-9 12 -16 29 -16 38 0 9
7 26 16 38 l15 22 478 0 c386 0 481 -3 496 -14z m4 -393 c24 -30 20 -58 -11
-85 -19 -17 -57 -18 -485 -18 l-464 0 -24 25 c-30 29 -31 45 -4 79 l20 26 474
0 474 0 20 -27z m-715 -374 c30 -24 34 -63 9 -91 -14 -16 -33 -18 -140 -18
-110 0 -125 2 -143 20 -22 22 -25 42 -9 71 16 31 45 38 155 38 88 1 105 -2
128 -20z m710 1 c26 -27 28 -55 5 -83 l-20 -27 -250 0 c-236 0 -250 1 -269 20
-28 28 -25 64 7 90 26 20 35 21 270 18 200 -2 245 -6 257 -18z m-1792 -197
c22 -20 23 -61 1 -85 -23 -25 -187 -27 -215 -1 -22 20 -23 61 -1 85 23 25 187
27 215 1z"/>
<path d="M1430 3470 c-19 -19 -20 -33 -20 -403 l0 -383 90 -77 89 -77 283 0
284 0 72 73 72 72 0 392 0 392 -22 15 c-19 14 -77 16 -425 16 -390 0 -404 -1
-423 -20z m674 -125 c49 -23 69 -67 74 -160 5 -101 -11 -151 -57 -182 -33 -22
-41 -23 -263 -23 -185 0 -235 3 -258 15 -48 25 -60 61 -60 177 0 114 8 135 64
169 28 17 52 19 249 19 175 0 225 -3 251 -15z m-370 -516 c31 -25 34 -61 6
-89 -26 -26 -143 -29 -178 -4 -30 21 -30 77 0 98 35 25 138 21 172 -5z m414 4
c31 -28 35 -56 11 -86 -19 -25 -26 -27 -94 -27 -68 0 -75 2 -94 26 -27 34 -26
50 4 79 21 21 33 25 88 25 47 0 70 -5 85 -17z"/>
<path d="M1662 3168 l3 -63 190 0 190 0 3 63 3 62 -196 0 -196 0 3 -62z"/>
<path d="M700 1487 c0 -152 3 -216 12 -225 9 -9 434 -12 1850 -12 1806 0 1837
0 1848 19 6 12 10 103 10 225 l0 206 -1860 0 -1860 0 0 -213z"/>
</g>
</svg>
