<?xml version="1.0" standalone="no"?>
<!DOCTYPE svg PUBLIC "-//W3C//DTD SVG 20010904//EN"
 "http://www.w3.org/TR/2001/REC-SVG-20010904/DTD/svg10.dtd">
<svg version="1.0" xmlns="http://www.w3.org/2000/svg"
 width="24.000000pt" height="24.000000pt" viewBox="0 0 512.000000 512.000000"
 preserveAspectRatio="xMidYMid meet">
<metadata>
Created by potrace 1.16, written by Peter Selinger 2001-2019
</metadata>
<g transform="translate(0.000000,512.000000) scale(0.100000,-0.100000)"
fill="#969696" stroke="none">
<path d="M1560 4560 l0 -120 280 0 280 0 0 120 0 120 -280 0 -280 0 0 -120z"/>
<path d="M1069 4631 c-282 -101 -533 -253 -773 -467 -77 -68 -96 -91 -96 -113
0 -30 16 -51 40 -51 8 0 58 39 110 86 175 160 315 256 520 358 80 39 190 87
245 105 55 19 106 39 113 44 7 6 12 24 10 41 -3 26 -7 31 -33 33 -16 1 -78
-15 -136 -36z"/>
<path d="M2447 4663 c-12 -11 -8 -60 6 -70 6 -6 56 -25 109 -42 127 -42 367
-162 491 -245 309 -207 548 -472 727 -804 52 -96 57 -102 84 -100 56 5 56 29
2 134 -172 338 -441 635 -776 857 -216 143 -607 307 -643 270z"/>
<path d="M1720 4236 l0 -125 120 0 120 0 0 125 0 124 -120 0 -120 0 0 -124z"/>
<path d="M615 4090 c-11 -5 -86 -75 -167 -157 -116 -117 -148 -155 -148 -176
0 -29 30 -51 58 -43 10 4 87 75 171 160 132 133 152 158 149 181 -3 31 -32 47
-63 35z"/>
<path d="M3018 4089 c-10 -6 -18 -22 -18 -37 0 -23 31 -58 158 -185 87 -86
166 -157 174 -157 22 0 48 27 48 49 0 17 -319 341 -336 341 -5 0 -17 -5 -26
-11z"/>
<path d="M1590 4026 c-515 -91 -930 -400 -1155 -861 -109 -222 -145 -373 -152
-640 -4 -163 -2 -207 16 -314 55 -323 198 -598 436 -836 175 -177 354 -289
584 -369 88 -31 273 -76 310 -76 8 0 11 38 9 127 l-3 126 -80 18 c-359 78
-677 316 -863 644 -167 296 -210 690 -111 1012 129 417 465 753 883 882 170
52 421 67 601 36 460 -81 853 -415 1010 -857 l28 -78 128 0 c78 0 129 4 129
10 0 33 -71 223 -121 325 -209 426 -593 724 -1074 836 -116 27 -458 36 -575
15z"/>
<path d="M567 3832 c-42 -42 -77 -82 -77 -87 0 -6 33 -44 74 -84 l75 -74 90
84 90 84 -77 78 c-42 42 -81 77 -87 77 -6 0 -45 -35 -88 -78z"/>
<path d="M2938 3833 l-76 -78 88 -82 c48 -46 92 -83 97 -83 4 0 42 34 83 75
l75 75 -85 85 c-47 47 -89 85 -95 85 -6 0 -45 -35 -87 -77z"/>
<path d="M1619 3704 c-98 -17 -229 -59 -304 -96 -33 -16 -61 -31 -63 -33 -2
-1 11 -28 28 -59 36 -63 36 -91 1 -91 -19 0 -32 12 -55 52 -17 28 -34 54 -37
58 -10 9 -156 -104 -228 -176 -72 -72 -185 -218 -176 -228 4 -3 30 -20 58 -37
40 -23 52 -36 52 -55 0 -35 -28 -35 -91 1 -31 17 -57 30 -59 28 -1 -2 -16 -30
-33 -63 -57 -115 -112 -331 -112 -441 l0 -44 56 0 c64 0 94 -13 94 -40 0 -27
-30 -40 -94 -40 l-56 0 0 -44 c0 -111 57 -331 116 -448 15 -29 28 -54 29 -56
2 -2 28 11 59 28 63 36 91 36 91 1 0 -19 -12 -32 -52 -55 -28 -17 -54 -34 -58
-37 -9 -10 104 -156 176 -228 72 -72 218 -185 228 -176 3 4 20 30 37 58 23 40
36 52 55 52 35 0 35 -28 -1 -91 -17 -31 -30 -57 -28 -59 32 -29 217 -97 322
-119 l66 -14 0 524 c0 288 -2 524 -5 524 -3 0 -63 -39 -134 -86 -131 -87 -163
-98 -169 -57 -3 19 22 39 152 125 l155 103 1 208 c0 247 0 247 100 247 l60 0
0 176 c0 181 6 214 40 214 34 0 40 -33 40 -214 l0 -176 84 0 84 0 7 37 c21
114 88 213 171 253 66 32 157 25 216 -16 38 -27 96 -92 112 -126 5 -11 7 -11
12 0 16 34 74 99 113 127 39 28 49 30 127 30 46 0 84 2 84 4 0 12 -116 155
-171 210 -71 72 -218 185 -228 176 -3 -4 -20 -30 -37 -58 -23 -40 -36 -52 -55
-52 -35 0 -35 28 1 91 17 31 30 57 28 59 -2 1 -30 16 -63 33 -117 58 -331 112
-446 112 l-48 0 -3 -72 c-3 -63 -6 -73 -22 -76 -30 -6 -46 26 -46 90 l0 58
-52 -1 c-29 0 -87 -7 -129 -15z"/>
<path d="M3813 3140 c-82 -42 -155 -152 -169 -253 l-7 -47 46 0 c44 0 45 1 52
37 8 45 40 110 69 141 51 57 137 69 197 29 41 -28 95 -114 104 -168 l7 -39 48
0 c47 0 48 0 55 37 8 45 40 110 69 141 51 57 137 69 197 29 41 -28 95 -114
104 -168 7 -39 7 -39 52 -39 l46 0 -7 47 c-14 103 -88 213 -172 253 -37 18
-58 21 -117 18 -86 -5 -141 -34 -189 -103 -18 -25 -35 -45 -38 -45 -3 0 -20
20 -38 45 -49 70 -103 99 -192 103 -61 2 -83 -1 -117 -18z"/>
<path d="M2223 3051 c-44 -32 -89 -112 -100 -174 l-6 -37 203 0 203 0 -6 37
c-11 62 -56 142 -100 174 -33 24 -50 29 -97 29 -47 0 -64 -5 -97 -29z"/>
<path d="M2703 3051 c-44 -32 -89 -112 -100 -174 l-6 -37 203 0 203 0 -6 37
c-11 62 -56 142 -100 174 -33 24 -50 29 -97 29 -47 0 -64 -5 -97 -29z"/>
<path d="M1720 2480 l0 -280 1560 0 1560 0 0 280 0 280 -321 0 -322 0 6 -37
c16 -98 102 -203 167 -203 35 0 63 -22 59 -46 -6 -29 -69 -31 -124 -4 -82 40
-149 139 -170 253 l-7 37 -205 0 -206 0 6 -37 c16 -98 102 -203 167 -203 35 0
63 -22 59 -46 -6 -29 -69 -31 -124 -4 -82 40 -149 139 -170 253 l-7 37 -525 0
-526 0 6 -37 c16 -98 102 -203 167 -203 35 0 63 -22 59 -46 -6 -29 -69 -31
-124 -4 -82 40 -149 139 -170 253 l-7 37 -205 0 -206 0 6 -37 c16 -98 102
-203 167 -203 35 0 63 -22 59 -46 -6 -29 -69 -31 -124 -4 -82 40 -149 139
-170 253 l-7 37 -164 0 -164 0 0 -280z"/>
<path d="M1720 1200 l0 -920 1560 0 1560 0 0 920 0 920 -1560 0 -1560 0 0
-920z m2571 670 c10 -6 19 -19 19 -30 0 -11 -9 -24 -19 -30 -13 -7 -347 -10
-1011 -10 -664 0 -998 3 -1011 10 -24 13 -25 46 -1 59 24 14 1996 15 2023 1z
m120 -320 c10 -6 19 -19 19 -30 0 -32 -33 -40 -174 -40 l-136 0 0 -120 0 -120
96 0 c102 0 134 -9 134 -40 0 -31 -32 -40 -134 -40 l-96 0 0 -120 0 -120 136
0 c141 0 174 -8 174 -40 0 -33 -33 -40 -194 -40 -143 0 -158 2 -176 20 -19 19
-20 33 -20 340 0 307 1 321 20 340 18 18 33 20 176 20 88 0 164 -4 175 -10z
m-2003 -19 c20 -10 44 -27 53 -37 50 -58 65 -155 25 -163 -24 -4 -46 24 -46
57 0 14 -14 38 -34 58 -30 30 -40 34 -86 34 -46 0 -56 -4 -86 -34 -30 -30 -34
-40 -34 -86 0 -45 4 -56 33 -85 25 -25 44 -34 87 -40 123 -17 190 -86 190
-195 0 -111 -79 -190 -190 -190 -53 0 -113 24 -141 56 -50 58 -65 155 -25 163
24 4 46 -24 46 -57 0 -14 14 -38 34 -58 30 -30 40 -34 86 -34 46 0 56 4 86 34
30 30 34 40 34 86 0 45 -4 56 -33 85 -25 25 -44 34 -87 40 -123 17 -190 86
-190 195 0 111 77 189 188 190 33 0 67 -7 90 -19z m640 0 c43 -22 62 -42 88
-91 17 -31 19 -65 22 -292 4 -268 0 -298 -38 -298 -31 0 -40 32 -40 134 l0 96
-120 0 -120 0 0 -96 c0 -102 -9 -134 -40 -134 -38 0 -42 30 -38 298 3 239 5
260 25 297 23 45 44 65 88 88 42 22 127 21 173 -2z m422 0 c6 -12 10 -131 10
-315 l0 -296 136 0 c141 0 174 -8 174 -40 0 -33 -33 -40 -194 -40 -143 0 -158
2 -176 20 -19 19 -20 33 -20 336 0 198 4 322 10 335 6 10 19 19 30 19 11 0 24
-9 30 -19z m861 -941 c25 -14 25 -46 0 -60 -27 -14 -2075 -14 -2102 0 -24 13
-25 46 -1 59 24 14 2076 15 2103 1z"/>
<path d="M2874 1446 l-34 -34 0 -126 0 -126 120 0 120 0 0 126 0 126 -34 34
c-30 30 -40 34 -86 34 -46 0 -56 -4 -86 -34z"/>
<path d="M320 820 c-16 -29 -1 -49 87 -121 189 -152 452 -298 670 -373 131
-44 157 -44 161 0 4 38 -6 46 -93 74 -237 77 -484 214 -692 382 -77 62 -114
73 -133 38z"/>
</g>
</svg>
