<?xml version="1.0" standalone="no"?>
<!DOCTYPE svg PUBLIC "-//W3C//DTD SVG 20010904//EN"
 "http://www.w3.org/TR/2001/REC-SVG-20010904/DTD/svg10.dtd">
<svg version="1.0" xmlns="http://www.w3.org/2000/svg"
 width="24.000000pt" height="24.000000pt" viewBox="0 0 512.000000 512.000000"
 preserveAspectRatio="xMidYMid meet">
<metadata>
Created by potrace 1.16, written by Peter Selinger 2001-2019
</metadata>
<g transform="translate(0.000000,512.000000) scale(0.100000,-0.100000)"
fill="#969696" stroke="none">
<path d="M1778 4782 l-178 -178 0 -141 0 -142 -577 -3 -578 -3 -60 -29 c-77
-38 -153 -114 -191 -191 l-29 -60 -3 -1540 c-2 -1153 0 -1554 9 -1595 24 -112
84 -194 174 -236 l50 -24 603 0 602 0 0 -150 c0 -168 8 -201 63 -259 18 -18
50 -42 72 -52 38 -18 100 -19 1543 -19 1659 0 1539 -5 1611 63 18 18 42 50 52
72 18 39 19 117 19 2175 l0 2134 -178 178 c-176 177 -178 178 -222 178 -42 0
-46 -3 -182 -137 l-138 -137 -138 137 c-135 134 -140 137 -182 137 -42 0 -47
-3 -182 -137 l-138 -137 -138 137 c-135 134 -140 137 -182 137 -42 0 -47 -3
-182 -137 l-138 -137 -138 137 c-135 134 -140 137 -182 137 -42 0 -47 -3 -182
-137 l-138 -137 -138 137 c-136 134 -140 137 -182 137 -44 0 -46 -1 -222 -178z
m362 -167 c133 -132 138 -135 180 -135 42 0 47 3 182 137 l138 137 138 -137
c135 -134 140 -137 182 -137 42 0 47 3 182 137 l138 137 138 -137 c135 -134
140 -137 182 -137 42 0 47 3 182 137 l138 137 138 -137 c135 -134 140 -137
182 -137 42 0 47 3 182 137 l138 137 120 -119 120 -120 0 -2051 c0 -1504 -3
-2060 -11 -2084 -23 -63 65 -60 -1509 -60 -1200 0 -1436 2 -1464 14 -45 19
-56 55 -56 192 l0 113 418 3 417 3 55 27 c104 51 186 143 215 241 l12 42 802
3 801 2 0 80 0 80 -800 0 -800 0 0 160 0 160 800 0 800 0 0 80 0 80 -800 0
-800 0 0 160 0 160 800 0 800 0 0 80 0 80 -800 0 -800 0 0 160 0 160 800 0
800 0 0 80 0 80 -800 0 -800 0 0 160 0 160 800 0 800 0 0 80 0 80 -800 0 -799
0 -3 498 -3 497 -29 60 c-38 77 -114 153 -191 191 l-60 29 -417 3 -418 3 0 97
0 97 117 117 c65 65 120 118 122 118 3 0 66 -61 141 -135z m260 -935 l0 -160
-880 0 -880 0 0 160 0 160 880 0 880 0 0 -160z m-1120 -960 l0 -320 -320 0
-320 0 0 320 0 320 320 0 320 0 0 -320z m1120 0 l0 -320 -320 0 -320 0 0 320
0 320 320 0 320 0 0 -320z m-1120 -1200 l0 -400 -320 0 -320 0 0 400 0 400
320 0 320 0 0 -400z m1120 0 l0 -400 -320 0 -320 0 0 400 0 400 320 0 320 0 0
-400z"/>
<path d="M3200 4276 c0 -37 -4 -46 -21 -51 -35 -11 -101 -77 -120 -120 -12
-26 -19 -63 -19 -105 0 -140 78 -221 233 -245 21 -3 47 -15 58 -26 25 -25 24
-74 -1 -99 -37 -37 -120 -13 -120 35 0 12 -16 15 -86 15 l-87 0 6 -46 c6 -59
48 -120 109 -159 44 -28 47 -33 47 -72 l1 -43 80 0 80 0 0 43 c0 36 4 46 24
55 42 19 99 76 117 117 25 53 25 157 0 210 -35 78 -104 123 -214 140 -21 3
-47 15 -58 26 -25 25 -24 74 1 99 37 37 120 13 120 -35 0 -12 16 -15 86 -15
l87 0 -6 46 c-6 59 -48 120 -109 159 -44 28 -47 33 -47 73 l-1 42 -80 0 -80 0
0 -44z"/>
<path d="M880 2880 l0 -80 -80 0 -80 0 0 -80 0 -80 80 0 80 0 0 -80 0 -80 80
0 80 0 0 80 0 80 80 0 80 0 0 80 0 80 -80 0 -80 0 0 80 0 80 -80 0 -80 0 0
-80z"/>
<path d="M1840 2720 l0 -80 240 0 240 0 0 80 0 80 -240 0 -240 0 0 -80z"/>
<path d="M797 1764 c-37 -24 -67 -47 -67 -50 0 -2 27 -45 60 -94 33 -49 60
-94 60 -100 0 -6 -27 -51 -60 -100 -33 -49 -60 -92 -60 -94 0 -10 133 -95 141
-91 3 3 24 32 45 65 22 33 41 60 44 60 3 0 22 -27 44 -60 21 -33 42 -62 45
-65 8 -4 141 81 141 91 0 2 -27 45 -60 94 -33 49 -60 94 -60 100 0 6 27 51 60
100 33 49 60 92 60 94 0 10 -133 95 -141 91 -3 -3 -24 -32 -45 -65 -22 -33
-41 -60 -44 -60 -3 0 -22 27 -44 60 -21 33 -42 62 -45 65 -4 2 -38 -16 -74
-41z"/>
<path d="M1840 1680 l0 -80 240 0 240 0 0 80 0 80 -240 0 -240 0 0 -80z"/>
<path d="M1840 1360 l0 -80 240 0 240 0 0 80 0 80 -240 0 -240 0 0 -80z"/>
</g>
</svg>
