<?xml version="1.0" standalone="no"?>
<!DOCTYPE svg PUBLIC "-//W3C//DTD SVG 20010904//EN"
 "http://www.w3.org/TR/2001/REC-SVG-20010904/DTD/svg10.dtd">
<svg version="1.0" xmlns="http://www.w3.org/2000/svg"
 width="24.000000pt" height="24.000000pt" viewBox="0 0 512.000000 512.000000"
 preserveAspectRatio="xMidYMid meet">
<metadata>
Created by potrace 1.16, written by Peter Selinger 2001-2019
</metadata>
<g transform="translate(0.000000,512.000000) scale(0.100000,-0.100000)"
fill="#969696" stroke="none">
<path d="M2155 5109 c-240 -21 -528 -71 -722 -126 -84 -23 -92 -28 -88 -47 6
-26 145 -981 145 -995 0 -8 312 -11 1075 -11 591 0 1075 3 1075 8 0 4 34 225
75 492 42 267 74 494 73 505 -2 15 -21 25 -78 42 -185 56 -493 110 -765 133
-141 12 -646 11 -790 -1z m483 -469 c50 -30 74 -76 69 -131 -5 -61 -36 -103
-92 -125 -59 -22 -110 -8 -154 41 -43 49 -49 94 -20 152 40 78 127 106 197 63z"/>
<path d="M977 4800 c-182 -106 -302 -233 -348 -368 -18 -53 -19 -103 -19
-1239 0 -1043 2 -1193 16 -1261 49 -236 138 -386 353 -594 207 -200 287 -267
360 -302 l66 -31 1155 0 1155 0 66 31 c73 35 153 102 360 302 201 194 273 307
342 537 21 69 21 83 24 1284 4 1333 7 1252 -55 1360 -54 93 -190 215 -319 287
-29 16 -55 26 -58 22 -4 -3 -78 -469 -166 -1035 -87 -565 -166 -1057 -174
-1093 -63 -255 -264 -455 -540 -535 -367 -106 -795 -104 -1223 6 -261 67 -430
195 -533 404 -53 109 -60 141 -128 610 -33 226 -101 686 -151 1023 -49 337
-90 617 -90 622 0 18 -24 10 -93 -30z m396 -2807 c40 -20 67 -70 67 -123 0
-80 -60 -140 -140 -140 -167 0 -193 233 -32 280 31 9 65 3 105 -17z m2519 1
c39 -20 68 -74 68 -125 0 -141 -182 -192 -261 -73 -33 51 -20 146 25 183 46
38 110 44 168 15z m-1990 -350 c39 -20 68 -74 68 -125 0 -79 -60 -139 -140
-139 -167 0 -193 233 -32 280 30 9 64 3 104 -16z m1460 0 c39 -20 68 -74 68
-125 0 -141 -182 -192 -261 -73 -33 51 -20 146 25 183 46 38 110 44 168 15z"/>
<path d="M1540 3621 c0 -31 122 -833 131 -861 21 -65 51 -114 106 -171 85 -90
186 -130 453 -180 163 -30 490 -38 648 -15 147 22 286 58 351 90 97 50 176
139 212 241 13 38 149 857 149 900 0 3 -461 5 -1025 5 -582 0 -1025 -4 -1025
-9z"/>
<path d="M666 581 c-331 -332 -366 -373 -366 -433 1 -41 38 -107 72 -128 39
-24 116 -27 156 -6 15 8 188 176 386 374 l359 360 -64 30 c-35 17 -96 56 -135
85 l-72 54 -336 -336z"/>
<path d="M4055 869 c-33 -26 -93 -65 -134 -85 l-73 -37 358 -359 c198 -198
371 -366 386 -374 40 -21 117 -18 156 6 35 22 72 88 72 130 0 60 -41 108 -371
437 l-334 331 -60 -49z"/>
</g>
</svg>
