<?xml version="1.0" standalone="no"?>
<!DOCTYPE svg PUBLIC "-//W3C//DTD SVG 20010904//EN"
 "http://www.w3.org/TR/2001/REC-SVG-20010904/DTD/svg10.dtd">
<svg version="1.0" xmlns="http://www.w3.org/2000/svg"
 width="32.000000pt" height="32.000000pt" viewBox="0 0 32.000000 32.000000"
 preserveAspectRatio="xMidYMid meet">

<g transform="translate(0.000000,32.000000) scale(0.100000,-0.100000)"
fill="#969696" stroke="none">
<path d="M20 154 c0 -87 2 -97 23 -115 28 -23 51 -24 68 -2 13 15 11 16 -13
10 -29 -8 -47 8 -30 25 8 8 15 8 25 0 8 -7 27 -13 43 -15 16 -2 29 -7 29 -13
0 -5 -6 -7 -14 -6 -7 2 -10 -1 -6 -7 10 -17 33 -13 45 7 10 16 10 16 20 0 13
-22 39 -23 46 -3 4 8 15 15 25 15 16 0 19 8 19 55 0 52 -1 55 -25 55 -22 0
-25 4 -25 35 0 31 -3 35 -25 35 -22 0 -25 -4 -25 -35 0 -31 -3 -35 -25 -35
-23 0 -25 4 -25 45 l0 45 -65 0 -65 0 0 -96z m100 6 c0 -39 -1 -40 -35 -40
-34 0 -35 1 -35 40 0 39 1 40 35 40 34 0 35 -1 35 -40z m124 -121 c-3 -5 -10
-7 -15 -3 -5 3 -7 10 -3 15 3 5 10 7 15 3 5 -3 7 -10 3 -15z"/>
</g>
</svg>
