<?xml version="1.0" standalone="no"?>
<!DOCTYPE svg PUBLIC "-//W3C//DTD SVG 20010904//EN"
 "http://www.w3.org/TR/2001/REC-SVG-20010904/DTD/svg10.dtd">
<svg version="1.0" xmlns="http://www.w3.org/2000/svg"
 width="512.000000pt" height="512.000000pt" viewBox="0 0 512.000000 512.000000"
 preserveAspectRatio="xMidYMid meet">

<g transform="translate(0.000000,512.000000) scale(0.100000,-0.100000)"
fill="#000000" stroke="none">
<path d="M300 4040 c-25 -25 -26 -51 -2 -79 l17 -21 1460 -3 c1316 -2 1465 -4
1513 -19 135 -42 248 -115 323 -211 l42 -52 -249 -5 c-237 -5 -251 -6 -293
-28 -87 -47 -134 -123 -135 -218 0 -57 9 -81 164 -420 212 -468 224 -490 252
-498 13 -3 235 -6 493 -6 l470 0 48 -79 c26 -44 47 -82 47 -85 0 -3 -44 -6
-97 -6 -116 0 -170 -21 -210 -81 -38 -58 -41 -117 -10 -181 35 -71 83 -128
123 -144 25 -10 88 -14 244 -14 l210 0 12 -27 c21 -48 16 -172 -9 -219 -28
-53 -74 -99 -127 -127 l-41 -22 -609 0 -609 0 -101 166 c-56 92 -110 176 -120
188 -18 20 -28 21 -248 21 l-228 0 0 718 c0 684 -1 720 -18 735 -17 15 -59 17
-398 17 -313 0 -384 -3 -400 -14 -18 -14 -19 -35 -22 -735 l-2 -721 -735 0
c-722 0 -735 0 -755 -20 -25 -25 -25 -55 0 -80 16 -16 33 -20 85 -20 l66 0 20
-47 c12 -27 23 -80 26 -123 11 -148 -70 -301 -215 -410 -31 -23 -35 -53 -11
-83 l20 -27 1620 0 c1606 0 1619 0 1639 20 24 24 25 48 4 78 l-15 22 -360 0
c-197 0 -359 3 -359 6 0 3 16 22 35 42 105 111 151 300 110 455 -8 32 -15 60
-15 62 0 3 18 5 39 5 l39 0 114 -187 114 -188 202 -3 202 -2 0 -70 c0 -115
-17 -110 343 -110 268 0 306 2 336 18 46 23 73 62 80 114 l6 43 76 6 c99 8
174 42 242 111 78 77 110 151 115 263 3 75 0 100 -18 147 -18 48 -931 1583
-1074 1807 -108 168 -245 274 -434 334 l-67 22 -1472 3 c-1467 2 -1473 2
-1493 -18z m3697 -965 c149 -247 272 -453 272 -457 1 -5 -185 -8 -411 -8
l-413 0 -172 379 c-187 408 -194 432 -151 486 40 52 60 55 343 52 l260 -2 272
-450z m-1487 -530 l0 -675 -295 0 -295 0 0 675 0 675 295 0 295 0 0 -675z
m2068 -439 c29 -47 52 -87 52 -90 0 -3 -72 -6 -160 -6 -180 0 -179 0 -220 80
-22 43 -17 69 18 89 9 6 71 11 138 11 l121 0 51 -84z m-3728 -360 c0 -2 -7
-22 -15 -45 -52 -149 -9 -345 105 -473 l42 -48 -252 0 -251 0 31 45 c39 57 78
142 96 208 18 68 18 192 -1 253 -8 27 -15 52 -15 57 0 4 59 7 130 7 72 0 130
-2 130 -4z m801 -48 c35 -79 34 -211 -3 -290 -35 -76 -104 -147 -175 -184 -53
-27 -67 -29 -163 -29 -92 0 -112 3 -160 26 -72 34 -140 101 -176 174 -26 55
-29 69 -29 165 0 90 3 111 23 148 l22 42 319 0 319 0 23 -52z m269 -56 c0
-116 11 -148 52 -154 17 -2 26 -17 43 -75 24 -76 67 -153 110 -193 14 -13 25
-27 25 -32 0 -4 -115 -8 -255 -8 l-256 0 52 68 c56 72 74 108 95 187 18 66 18
190 -1 251 -8 27 -15 52 -15 57 0 4 34 7 75 7 l75 0 0 -108z m460 38 l0 -70
-165 0 -165 0 0 70 0 70 165 0 165 0 0 -70z m451 18 c19 -43 23 -71 24 -143 0
-82 -3 -96 -33 -157 -37 -75 -104 -142 -179 -179 -42 -21 -62 -24 -158 -24
-107 0 -112 1 -174 36 -77 42 -134 105 -166 185 l-24 59 174 5 c219 6 209 -1
213 155 l4 115 148 0 148 0 23 -52z m1469 -358 c0 -12 -9 -22 -22 -25 -13 -3
-129 -4 -258 -3 l-235 3 -3 23 -3 22 260 0 c253 0 261 -1 261 -20z"/>
<path d="M2100 2597 c-24 -12 -25 -15 -28 -141 -2 -109 0 -132 14 -147 22 -25
59 -24 84 1 18 18 20 33 20 139 0 117 -1 120 -26 140 -31 24 -31 25 -64 8z"/>
<path d="M413 3690 c-44 -18 -42 -88 3 -108 38 -18 2149 -17 2184 1 19 9 26
22 28 49 6 73 85 68 -1118 67 -606 0 -1085 -4 -1097 -9z"/>
<path d="M277 3322 c-15 -17 -17 -62 -17 -444 0 -399 1 -426 18 -441 17 -15
75 -17 635 -17 604 0 617 0 637 20 19 19 20 33 20 440 0 407 -1 421 -20 440
-20 20 -33 20 -638 20 -587 0 -620 -1 -635 -18z m1163 -442 l0 -340 -530 0
-530 0 0 340 0 340 530 0 530 0 0 -340z"/>
</g>
</svg>
