<?xml version="1.0" standalone="no"?>
<!DOCTYPE svg PUBLIC "-//W3C//DTD SVG 20010904//EN"
 "http://www.w3.org/TR/2001/REC-SVG-20010904/DTD/svg10.dtd">
<svg version="1.0" xmlns="http://www.w3.org/2000/svg"
 width="420.000000pt" height="420.000000pt" viewBox="0 0 512.000000 512.000000"
 preserveAspectRatio="xMidYMid meet">

<g transform="translate(0.000000,512.000000) scale(0.100000,-0.100000)"
fill="#000000" stroke="none">
<path d="M78 4449 c-23 -12 -46 -35 -58 -59 -19 -36 -20 -58 -20 -300 l0 -260
808 0 c766 0 809 -1 847 -19 26 -12 156 -135 382 -362 293 -295 342 -349 348
-381 13 -70 -16 -131 -78 -166 -30 -16 -113 -17 -1170 -20 l-1137 -2 2 -593 3
-592 22 -31 c50 -70 -150 -65 2315 -62 l2223 3 70 23 c215 72 382 238 451 448
26 80 29 102 29 214 -1 141 -21 233 -76 343 -38 75 -105 170 -151 214 l-33 32
-800 3 -800 3 -64 23 c-36 13 -88 39 -115 57 -28 19 -382 365 -786 770 l-735
735 -720 0 c-697 -1 -721 -2 -757 -21z"/>
<path d="M2610 3836 c634 -633 635 -634 688 -645 61 -13 1242 -16 1242 -3 0
14 -1065 1069 -1115 1104 -123 86 -248 138 -392 163 -68 12 -186 15 -572 15
l-486 0 635 -634z"/>
<path d="M0 3355 l0 -175 935 0 c514 0 935 3 935 8 0 4 -75 83 -168 175 l-167
167 -768 0 -767 0 0 -175z"/>
<path d="M20 1281 c0 -39 62 -190 104 -254 l43 -66 -39 -6 c-108 -19 -163
-155 -97 -239 47 -60 -147 -56 2532 -56 l2454 0 34 23 c91 61 89 181 -5 251
-27 21 -40 21 -701 26 l-674 5 35 55 c42 66 80 146 94 203 6 23 13 50 16 60 5
16 -36 17 -770 17 -745 0 -776 -1 -776 -18 0 -54 69 -212 127 -289 l24 -33
-502 0 -501 0 17 27 c10 16 29 44 42 63 25 38 76 165 88 218 l7 32 -776 0
c-762 0 -776 0 -776 -19z"/>
</g>
</svg>
