<?xml version="1.0" standalone="no"?>
<!DOCTYPE svg PUBLIC "-//W3C//DTD SVG 20010904//EN"
 "http://www.w3.org/TR/2001/REC-SVG-20010904/DTD/svg10.dtd">
<svg version="1.0" xmlns="http://www.w3.org/2000/svg"
 width="512.000000pt" height="512.000000pt" viewBox="0 0 512.000000 512.000000"
 preserveAspectRatio="xMidYMid meet">

<g transform="translate(0.000000,512.000000) scale(0.100000,-0.100000)"
fill="#000000" stroke="none">
<path d="M25 5095 c-24 -23 -25 -31 -25 -135 0 -104 1 -112 25 -135 l24 -25
2511 0 2511 0 24 25 c24 23 25 31 25 135 0 104 -1 112 -25 135 l-24 25 -2511
0 -2511 0 -24 -25z"/>
<path d="M800 4480 l0 -160 80 0 80 0 0 160 0 160 -80 0 -80 0 0 -160z"/>
<path d="M2240 4480 l0 -160 80 0 80 0 0 160 0 160 -80 0 -80 0 0 -160z"/>
<path d="M585 4135 l-25 -24 0 -271 0 -271 25 -24 24 -25 991 0 991 0 24 25
25 24 0 271 0 271 -25 24 -24 25 -991 0 -991 0 -24 -25z"/>
<path d="M25 2695 c-25 -24 -25 -27 -25 -200 l0 -175 175 0 c173 0 176 0 200
-25 l25 -24 0 -431 0 -431 -25 -24 c-24 -25 -27 -25 -200 -25 l-175 0 0 -160
0 -159 848 -4 c943 -4 899 -1 1201 -77 316 -79 216 -74 1469 -77 l1122 -4 0
80 0 80 -582 3 -583 3 -73 27 c-168 61 -300 175 -371 319 -69 141 -71 154 -71
777 l0 552 -1455 0 -1456 0 -24 -25z m1120 -400 l25 -24 0 -431 0 -431 -25
-24 -24 -25 -225 0 c-223 0 -225 0 -253 24 l-28 24 0 432 0 432 28 24 c28 24
30 24 253 24 l225 0 24 -25z m772 1 l28 -24 0 -432 0 -432 -28 -24 c-28 -24
-30 -24 -253 -24 l-225 0 -24 25 -25 24 0 435 0 435 26 20 c25 20 39 21 250
21 221 0 223 0 251 -24z m778 -1 l25 -24 0 -431 0 -431 -25 -24 -24 -25 -231
0 -231 0 -24 25 -25 24 0 431 0 431 25 24 24 25 231 0 231 0 24 -25z"/>
<path d="M770 1840 l0 -320 120 0 120 0 0 320 0 320 -120 0 -120 0 0 -320z"/>
<path d="M1550 1840 l0 -320 120 0 120 0 0 320 0 320 -120 0 -120 0 0 -320z"/>
<path d="M2320 1840 l0 -320 120 0 120 0 0 320 0 320 -120 0 -120 0 0 -320z"/>
<path d="M3120 2170 c0 -600 1 -607 61 -721 38 -70 126 -157 197 -193 109 -55
120 -56 712 -56 l546 0 -8 83 c-24 254 -116 508 -266 732 -91 137 -292 338
-427 428 -226 149 -479 241 -732 265 l-83 8 0 -546z"/>
<path d="M0 1840 l0 -320 120 0 120 0 0 320 0 320 -120 0 -120 0 0 -320z"/>
<path d="M0 680 l0 -200 2218 0 c2502 0 2276 -8 2355 80 39 44 67 103 67 143
0 15 -106 16 -1132 20 -1277 4 -1162 -2 -1518 86 -274 69 -312 71 -1202 71
l-788 0 0 -200z"/>
<path d="M0 185 c0 -131 1 -137 25 -160 l24 -25 2511 0 2511 0 24 25 c24 23
25 31 25 135 0 104 -1 112 -25 135 l-24 25 -2536 0 -2535 0 0 -135z"/>
</g>
</svg>
