<?xml version="1.0" standalone="no"?>
<!DOCTYPE svg PUBLIC "-//W3C//DTD SVG 20010904//EN"
 "http://www.w3.org/TR/2001/REC-SVG-20010904/DTD/svg10.dtd">
<svg version="1.0" xmlns="http://www.w3.org/2000/svg"
 width="24.000000pt" height="24.000000pt" viewBox="0 0 512.000000 512.000000"
 preserveAspectRatio="xMidYMid meet">

<g transform="translate(0.000000,512.000000) scale(0.100000,-0.100000)"
fill="#969696" stroke="none">
<path d="M2065 5109 c-405 -59 -779 -349 -930 -720 -188 -464 -78 -978 284
-1322 224 -213 497 -321 811 -322 331 0 618 119 845 349 225 229 345 520 345
841 0 449 -252 855 -658 1059 -206 104 -472 148 -697 115z"/>
<path d="M1175 2546 c-376 -62 -686 -262 -898 -579 -75 -112 -182 -338 -232
-490 -49 -149 -52 -171 -31 -222 24 -58 322 -247 599 -380 400 -192 765 -296
1232 -350 228 -27 647 -21 871 11 l40 6 -7 51 c-16 109 -10 360 11 482 75 439
344 836 725 1072 91 57 246 131 323 154 23 6 42 15 42 19 0 9 -146 95 -206
121 -198 86 -333 114 -559 114 -189 0 -221 -5 -405 -55 -307 -85 -585 -87
-872 -5 -48 14 -118 32 -155 41 -95 21 -375 27 -478 10z"/>
<path d="M3665 1581 c-53 -24 -103 -75 -129 -131 -21 -44 -21 -58 -21 -645 l0
-600 24 -53 c13 -30 42 -68 64 -88 70 -59 104 -64 443 -64 l302 0 4 263 c3
258 3 263 29 317 37 78 71 114 141 149 l61 31 269 0 269 0 -3 333 -3 332 -27
46 c-15 26 -42 59 -59 73 -68 57 -49 56 -713 56 -570 0 -614 -2 -651 -19z
m775 -339 c51 -25 80 -74 80 -135 0 -64 -28 -109 -84 -136 -39 -20 -60 -21
-297 -21 -244 0 -257 1 -299 23 -111 55 -114 202 -6 268 28 17 53 19 301 19
237 0 274 -2 305 -18z m-190 -400 c108 -54 108 -212 0 -269 -40 -21 -56 -23
-204 -23 -148 0 -166 2 -206 23 -85 42 -113 152 -58 223 47 59 67 64 258 64
147 0 181 -3 210 -18z"/>
<path d="M4664 447 c-2 -7 -3 -75 -2 -150 l3 -137 150 150 150 150 -148 0
c-112 0 -149 -3 -153 -13z"/>
</g>
</svg>
