<?xml version="1.0" standalone="no"?>
<!DOCTYPE svg PUBLIC "-//W3C//DTD SVG 20010904//EN"
 "http://www.w3.org/TR/2001/REC-SVG-20010904/DTD/svg10.dtd">
<svg version="1.0" xmlns="http://www.w3.org/2000/svg"
 width="24.000000pt" height="24.000000pt" viewBox="0 0 512.000000 512.000000"
 preserveAspectRatio="xMidYMid meet">

<g transform="translate(0.000000,512.000000) scale(0.100000,-0.100000)"
fill="#969696" stroke="none">
<path d="M2169 4691 l-29 -29 0 -187 c0 -188 4 -216 39 -242 27 -21 79 -15
106 12 25 24 25 25 25 219 0 107 -3 202 -6 211 -8 19 -55 45 -84 45 -12 0 -35
-13 -51 -29z"/>
<path d="M3833 4696 l-28 -24 0 -200 c0 -198 0 -201 24 -226 32 -34 80 -35
118 -2 l28 24 4 157 c2 85 0 176 -4 202 -13 86 -83 120 -142 69z"/>
<path d="M1420 4539 c-14 -6 -36 -20 -48 -32 -51 -47 -52 -54 -52 -392 l0
-315 1740 0 1740 0 0 308 c0 299 -1 309 -22 352 -17 33 -35 51 -68 68 -44 22
-52 22 -310 20 l-265 -3 -5 -160 c-5 -152 -6 -162 -32 -206 -107 -181 -383
-145 -444 57 -9 31 -14 94 -14 181 l0 133 -584 0 -585 0 -3 -163 c-3 -162 -3
-164 -33 -213 -43 -68 -108 -107 -190 -112 -78 -5 -126 10 -177 56 -73 66 -82
96 -86 275 l-4 157 -266 -1 c-153 0 -278 -5 -292 -10z"/>
<path d="M1315 3533 c-26 -433 -112 -759 -296 -1123 -137 -271 -316 -515 -556
-760 -157 -159 -166 -177 -118 -225 l24 -25 1697 0 1697 0 141 143 c550 554
858 1229 892 1955 l7 142 -1740 0 -1741 0 -7 -107z m1237 -415 c148 -68 228
-240 184 -393 -22 -73 -15 -63 -239 -355 l-188 -245 186 -5 c181 -5 187 -6
206 -29 22 -27 24 -49 8 -84 -20 -43 -44 -47 -323 -47 -247 0 -265 1 -288 20
-28 21 -39 56 -27 87 4 11 120 167 257 346 216 282 252 333 257 371 23 148
-131 254 -266 183 -68 -36 -92 -88 -97 -210 -4 -90 -6 -99 -30 -117 -33 -27
-65 -25 -99 4 -28 24 -28 26 -28 133 1 94 4 115 27 164 44 96 119 165 211 195
65 21 181 13 249 -18z m793 7 l25 -24 0 -491 0 -490 65 0 c57 0 69 -3 90 -25
33 -32 33 -78 0 -110 -24 -25 -24 -25 -238 -25 -202 0 -216 1 -241 21 -20 16
-26 29 -26 59 0 58 33 80 121 80 l69 0 0 376 c0 207 -3 374 -7 372 -110 -56
-131 -62 -195 -63 -57 0 -71 4 -90 22 -50 50 -16 133 56 133 73 0 109 20 194
106 73 74 87 84 118 84 24 0 43 -8 59 -25z"/>
<path d="M4633 2277 c-39 -78 -104 -193 -143 -256 -191 -307 -538 -700 -672
-761 -42 -19 -75 -20 -1480 -20 l-1438 0 0 -313 c0 -359 4 -381 75 -452 81
-81 -69 -75 1829 -75 1197 0 1703 3 1731 11 86 24 156 99 173 187 5 27 6 421
3 934 l-6 888 -72 -143z"/>
</g>
</svg>
