<?xml version="1.0" standalone="no"?>
<!DOCTYPE svg PUBLIC "-//W3C//DTD SVG 20010904//EN"
 "http://www.w3.org/TR/2001/REC-SVG-20010904/DTD/svg10.dtd">
<svg version="1.0" xmlns="http://www.w3.org/2000/svg"
 width="24.000000pt" height="24.000000pt" viewBox="0 0 24.000000 24.000000"
 preserveAspectRatio="xMidYMid meet">

<g transform="translate(0.000000,24.000000) scale(0.100000,-0.100000)"
fill="#969696" stroke="none">
<path d="M34 207 c-3 -8 -4 -47 -2 -88 3 -71 4 -74 28 -77 14 -2 35 -8 47 -14
16 -8 26 -8 35 0 7 5 24 12 38 14 24 3 25 5 25 88 l0 85 -83 3 c-63 2 -84 0
-88 -11z m106 -33 c11 -12 10 -18 -3 -32 -16 -15 -18 -15 -34 0 -13 14 -14 20
-3 32 7 9 16 16 20 16 4 0 13 -7 20 -16z m21 -64 c35 -19 20 -30 -41 -30 -60
0 -75 10 -42 29 22 13 58 14 83 1z"/>
</g>
</svg>
