<?xml version="1.0" standalone="no"?>
<!DOCTYPE svg PUBLIC "-//W3C//DTD SVG 20010904//EN"
 "http://www.w3.org/TR/2001/REC-SVG-20010904/DTD/svg10.dtd">
<svg version="1.0" xmlns="http://www.w3.org/2000/svg"
 width="512.000000pt" height="614.000000pt" viewBox="0 0 512.000000 614.000000"
 preserveAspectRatio="xMidYMid meet">

<g transform="translate(0.000000,614.000000) scale(0.100000,-0.100000)"
fill="#000000" stroke="none">
<path d="M620 6125 c-234 -47 -432 -200 -536 -410 -87 -177 -79 26 -82 -2084
-3 -2064 -7 -1924 58 -2003 17 -20 56 -49 87 -64 53 -26 66 -28 237 -33 l180
-6 85 -187 85 -188 170 -2 170 -3 -509 -456 c-281 -251 -520 -468 -533 -482
-86 -93 21 -243 142 -197 14 5 115 90 226 190 l201 180 1959 0 1959 0 207
-185 c223 -200 241 -210 312 -183 71 27 101 109 64 175 -9 17 -251 240 -536
495 l-519 463 169 3 170 2 85 188 85 187 179 6 c208 7 260 21 320 92 70 82 66
-70 63 2008 -3 2111 5 1908 -83 2084 -75 152 -198 274 -350 346 -169 81 29 74
-2100 76 -1538 1 -1912 -1 -1965 -12z m2450 -560 l0 -195 -510 0 -510 0 0 195
0 195 510 0 510 0 0 -195z m-770 -1470 l0 -1025 -802 2 -803 3 -41 22 c-22 12
-57 40 -77 62 -69 76 -67 53 -67 936 0 846 0 845 50 914 32 45 85 83 138 97
36 10 232 13 825 13 l777 1 0 -1025z m2162 997 c61 -30 114 -93 133 -156 23
-76 22 -1608 -1 -1685 -18 -61 -69 -123 -128 -154 l-41 -22 -802 -3 -803 -2 0
1025 0 1026 798 -3 797 -3 47 -23z m-3182 -2429 c168 -57 279 -242 250 -417
-21 -129 -99 -233 -218 -289 -61 -29 -76 -32 -162 -32 -82 0 -103 4 -152 27
-80 37 -152 107 -191 187 -30 61 -32 73 -32 166 1 90 4 106 30 160 86 178 287
262 475 198z m2826 -4 c99 -37 179 -117 221 -220 13 -32 18 -71 18 -139 0 -82
-4 -103 -27 -152 -37 -80 -107 -152 -187 -191 -60 -29 -74 -32 -161 -32 -86 0
-101 3 -162 32 -203 96 -280 329 -175 526 90 170 290 244 473 176z m-166
-1761 l279 -253 -830 -3 c-456 -1 -1202 -1 -1658 0 l-829 3 281 252 282 252
1098 0 1098 1 279 -252z"/>
</g>
</svg>
