<?xml version="1.0" standalone="no"?>
<!DOCTYPE svg PUBLIC "-//W3C//DTD SVG 20010904//EN"
 "http://www.w3.org/TR/2001/REC-SVG-20010904/DTD/svg10.dtd">
<svg version="1.0" xmlns="http://www.w3.org/2000/svg"
 width="512.000000pt" height="512.000000pt" viewBox="0 0 512.000000 512.000000"
 preserveAspectRatio="xMidYMid meet">

<g transform="translate(0.000000,512.000000) scale(0.100000,-0.100000)"
fill="#000000" stroke="none">
<path d="M2235 3981 c-70 -32 -105 -86 -105 -162 0 -22 7 -53 15 -69 l16 -30
399 0 399 0 16 30 c8 16 15 47 15 69 0 76 -35 130 -105 162 -36 17 -69 19
-325 19 -256 0 -289 -2 -325 -19z"/>
<path d="M211 3513 c-43 -166 -81 -478 -88 -733 -5 -194 0 -304 23 -565 l6
-70 -35 -13 c-46 -17 -104 -82 -113 -126 -14 -75 21 -152 86 -190 l35 -21
2435 0 2435 0 35 21 c65 38 100 115 86 190 -9 44 -67 109 -113 126 l-35 13 6
70 c33 372 32 661 -4 940 -18 140 -51 326 -66 378 -5 16 -34 17 -420 17 l-414
0 -2 -702 -3 -703 -115 0 -115 0 -3 703 -2 702 -1270 0 -1270 0 -2 -702 -3
-703 -115 0 -115 0 -3 703 -2 702 -415 0 -414 0 -10 -37z"/>
<path d="M741 1599 c-6 -18 -11 -54 -11 -80 l0 -48 -174 -3 c-190 -3 -202 -7
-249 -70 -21 -28 -34 -111 -23 -153 10 -40 73 -103 114 -115 25 -6 754 -10
2157 -10 2040 0 2122 1 2160 19 22 10 50 29 62 42 67 74 53 202 -29 261 -31
21 -44 23 -195 26 l-163 3 0 48 c0 26 -5 62 -11 80 l-11 31 -418 0 -418 0 -11
-31 c-6 -18 -11 -54 -11 -80 l0 -49 -950 0 -950 0 0 49 c0 26 -5 62 -11 80
l-11 31 -418 0 -418 0 -11 -31z"/>
</g>
</svg>
